<?xml version="1.0" encoding="UTF-8"?>
<!DOCTYPE svg PUBLIC "-//W3C//DTD SVG 1.1//EN" "http://www.w3.org/Graphics/SVG/1.1/DTD/svg11.dtd">
<!-- Creator: CorelDRAW 2020 (64-Bit) -->
<svg xmlns="http://www.w3.org/2000/svg" xml:space="preserve" width="514px" height="514px" version="1.1" style="shape-rendering:geometricPrecision; text-rendering:geometricPrecision; image-rendering:optimizeQuality; fill-rule:evenodd; clip-rule:evenodd"
viewBox="0 0 359.75 359.75"
 xmlns:xlink="http://www.w3.org/1999/xlink"
 xmlns:xodm="http://www.corel.com/coreldraw/odm/2003">
 <defs>
  <style type="text/css">
   <![CDATA[
    .fil0 {fill:none}
   ]]>
  </style>
 </defs>
 <g id="Layer_x0020_1">
  <metadata id="CorelCorpID_0Corel-Layer"/>
  <path class="fil0" d="M179.88 59.14c66.68,0 120.74,54.07 120.74,120.74 0,66.68 -54.06,120.74 -120.74,120.74 -66.67,0 -120.75,-54.06 -120.75,-120.74 0,-66.67 54.08,-120.74 120.75,-120.74zm0 300.61c-49.67,0 -94.65,-20.13 -127.19,-52.69 -32.56,-32.55 -52.69,-77.51 -52.69,-127.18 0,-49.67 20.13,-94.64 52.69,-127.19 32.54,-32.55 77.52,-52.69 127.19,-52.69 49.66,0 94.63,20.14 127.18,52.69 32.56,32.55 52.69,77.52 52.69,127.19 0,49.67 -20.13,94.63 -52.69,127.18 -32.55,32.56 -77.52,52.69 -127.18,52.69zm-125.53 -54.34c32.12,32.12 76.5,51.99 125.53,51.99 49.02,0 93.4,-19.87 125.52,-51.99 32.12,-32.12 52,-76.51 52,-125.53 0,-49.02 -19.88,-93.41 -52,-125.53 -32.12,-32.13 -76.5,-52 -125.52,-52 -49.03,0 -93.41,19.87 -125.53,52 -32.13,32.12 -52,76.51 -52,125.53 0,49.02 19.87,93.4 52,125.53z"/>
 </g>
</svg>
